# xmcd CD database file
#
# Track frame offsets:
#	150
#	14882
#	25353
#	43867
#	56951
#	70516
#	87181
#	97252
#	112926
#	122797
#
# Disc length: 1832 seconds
#
# Revision: 2
# Processed by: cddbd v1.5.1PL0 Copyright (c) Steve Scherf et al.
# Submitted via: CDex 1.51
#
DISCID=8d07260a
DTITLE=Kevin Banford and the Bakersfield Boys - King of the Thrift Store Cowboys
DYEAR=2001
DGENRE=Country
TTITLE0=Good Enough For me
TTITLE1=Guitars, Guns, God, and Girls
TTITLE2=Old El Paso
TTITLE3=Katie Bar The Door
TTITLE4=Cowgirls Rodeo
TTITLE5=Pride In My Misery
TTITLE6=By The Side Of The Road
TTITLE7=There By The Gracw
TTITLE8=King Of The Thrift Store Cowboys
TTITLE9=Texas Love
EXTD=YEAR: 2001
EXTT0=
EXTT1=
EXTT2=
EXTT3=
EXTT4=
EXTT5=
EXTT6=
EXTT7=
EXTT8=
EXTT9=
PLAYORDER=
